<svg width="852" height="120" viewBox="0 0 852 120" fill="none" xmlns="http://www.w3.org/2000/svg">
<path d="M113.59 60.3282C109.945 53.4674 101.445 50.875 94.6148 54.5365C90.3099 56.8452 87.7013 61.078 87.259 65.6122C86.1196 74.9445 80.6378 83.5944 71.7555 88.3567C57.267 96.126 39.2378 90.6199 31.5029 76.0671C23.7679 61.5143 29.2517 43.4092 43.7402 35.6419C52.6126 30.8855 62.8179 31.1216 71.1591 35.3602C71.3112 35.4356 71.4731 35.5031 71.6173 35.5804C71.6745 35.6121 71.7318 35.6399 71.7851 35.6637C75.6575 37.5222 80.3297 37.5817 84.4095 35.394C91.2242 31.7404 93.7992 23.2214 90.1618 16.3764C88.7341 13.6908 86.5658 11.6696 84.0481 10.4141L84.056 10.3883C67.7962 2.0458 47.891 1.54596 30.5609 10.8366C2.42717 25.9209 -8.20075 61.0502 6.81302 89.3048C21.8248 117.555 56.799 128.24 84.9328 113.156C101.852 104.088 112.409 87.7537 114.889 70.0294C115.602 66.8539 115.235 63.4205 113.59 60.3282Z" fill="white"/>
<path d="M111.876 8.89476C105.296 12.4234 101.345 18.9569 100.766 25.9031C100.004 33.0872 95.8491 39.7616 89.0383 43.4171C82.7527 46.7851 75.5865 46.8386 69.5281 44.1887C63.2643 40.0492 55.004 39.3867 47.9247 43.1811C37.6186 48.7071 33.7205 61.5798 39.2221 71.9356C44.7217 82.2873 57.5415 86.1967 67.8476 80.6728C74.4846 77.1144 78.4479 70.4896 78.9613 63.4602C79.8578 56.4704 83.9771 50.0043 90.6378 46.432C97.4525 42.7785 105.304 43.0224 111.668 46.3805L111.732 46.3051C117.776 49.5897 125.28 49.8793 131.797 46.3844C142.103 40.8604 146.003 27.9877 140.501 17.6359C135 7.28021 122.18 3.37078 111.876 8.89476Z" fill="white"/>
<path d="M58.0924 57.1111C55.9282 56.8472 53.9613 58.3963 53.7007 60.5702C53.438 62.7441 54.9803 64.7197 57.1446 64.9815C59.3089 65.2453 61.2757 63.6962 61.5363 61.5223C61.799 59.3484 60.2567 57.3749 58.0924 57.1111Z" fill="white"/>
<path d="M58.1971 56.2343C59.141 56.3494 59.9842 56.7342 60.6694 57.2975L61.329 55.8674C62.4427 53.4515 62.3578 50.6489 61.0999 48.3064C59.9842 46.2277 58.0529 44.7143 55.7741 44.1312L53.7619 43.6175C51.9353 43.1494 50.5293 45.238 51.641 46.7672L52.5316 47.993C54.3582 50.5041 55.6675 53.3484 56.406 56.3573C56.9747 56.2105 57.579 56.159 58.1971 56.2343Z" fill="black"/>
<path d="M53.758 58.1365C54.3287 57.3729 55.083 56.8314 55.9104 56.518L55.008 55.2287C53.4815 53.0509 51.023 51.7239 48.3749 51.6486C46.025 51.5811 43.754 52.5034 42.1131 54.1933L40.6636 55.6869C39.3485 57.0416 40.4444 59.3087 42.3184 59.1064L43.8212 58.9438C46.8998 58.6105 50.006 58.8922 52.97 59.757C53.126 59.1877 53.3847 58.6363 53.758 58.1365Z" fill="black"/>
<path d="M53.1793 62.9484C52.8061 62.0697 52.7152 61.1435 52.8594 60.2668L51.2974 60.4076C48.6572 60.6456 46.2836 62.1213 44.8934 64.3884C43.6592 66.3977 43.3195 68.8354 43.9574 71.1084L44.5202 73.1157C45.0316 74.9385 47.5336 75.117 48.2958 73.3855L48.906 71.997C50.158 69.1527 51.955 66.5901 54.1824 64.444C53.7678 64.0235 53.4241 63.5236 53.1793 62.9484Z" fill="black"/>
<path d="M57.0379 65.8582C56.094 65.7431 55.2508 65.3583 54.5656 64.795L53.906 66.2251C52.7923 68.641 52.8772 71.4436 54.1351 73.7861C55.2508 75.8648 57.1821 77.3782 59.4609 77.9613L61.4731 78.4751C63.2997 78.9412 64.7057 76.8546 63.594 75.3253L62.7034 74.0995C60.8768 71.5884 59.5675 68.7441 58.829 65.7352C58.2603 65.884 57.656 65.9335 57.0379 65.8582Z" fill="black"/>
<path d="M61.4771 63.956C60.9064 64.7197 60.1521 65.2612 59.3246 65.5746L60.2271 66.8638C61.7535 69.0417 64.2121 70.3686 66.8602 70.444C69.2101 70.5114 71.481 69.5891 73.122 67.8992L74.5714 66.4056C75.8866 65.0509 74.7906 62.7838 72.9166 62.9861L71.4139 63.1488C68.3353 63.482 65.229 63.2003 62.265 62.3355C62.109 62.9068 61.8503 63.4562 61.4771 63.956Z" fill="black"/>
<path d="M62.0557 59.1441C62.4289 60.0228 62.5197 60.9491 62.3756 61.8258L63.9376 61.6849C66.5778 61.4469 68.9514 59.9712 70.3416 57.7041C71.5758 55.6948 71.9154 53.2572 71.2776 50.9841L70.7148 48.9768C70.2033 47.154 67.7014 46.9755 66.9391 48.7071L66.329 50.0955C65.077 52.9398 63.28 55.5025 61.0525 57.6486C61.4672 58.0691 61.8128 58.5689 62.0557 59.1441Z" fill="black"/>
<path fill-rule="evenodd" clip-rule="evenodd" d="M205 0H189V77H189.044C189.297 82.6734 190.621 88.2499 192.949 93.4342C195.37 98.8251 198.829 103.686 203.128 107.741C207.428 111.795 212.484 114.962 218.008 117.062C223.119 119.006 228.539 120 234 120H250V104H234V104.091C230.469 104.091 226.966 103.449 223.661 102.192C220.09 100.835 216.822 98.7868 214.042 96.166C211.263 93.5451 209.027 90.4024 207.462 86.9173C206.053 83.7813 205.213 80.4235 204.977 77H205V37H222V21H205V0Z" fill="white"/>
<path fill-rule="evenodd" clip-rule="evenodd" d="M252 43H266.545V81.5H266.551C266.551 87.4658 268.705 93.1872 272.54 97.4056C276.375 101.624 281.577 103.994 287 103.994C292.423 103.994 297.625 101.624 301.46 97.4056C305.295 93.1872 307.449 87.4658 307.449 81.5H307.455V43H322V81.5V82H321.997C321.879 92.03 318.205 101.621 311.749 108.724C305.185 115.944 296.283 120 287 120C277.717 120 268.815 115.944 262.251 108.724C255.795 101.621 252.121 92.03 252.003 82H252V81.5V43Z" fill="white"/>
<path fill-rule="evenodd" clip-rule="evenodd" d="M330 79C330 69.7174 333.687 60.815 340.251 54.2513C346.815 47.6875 355.717 44 365 44H378V60H365V60.03C359.969 60.03 355.144 62.0286 351.586 65.5862C348.029 69.1437 346.03 73.9688 346.03 79H346V120H330V79Z" fill="white"/>
<path fill-rule="evenodd" clip-rule="evenodd" d="M400 28H384V81H384.013C384.004 81.3323 384 81.6656 384 82C384 102.987 401.013 120 422 120C442.987 120 460 102.987 460 82C460 61.0132 442.987 44 422 44C413.801 44 406.209 46.5966 400 51.0124V28ZM399.982 81H400V80.6611C400.692 69.1122 410.277 59.96 422 59.96C434.172 59.96 444.04 69.8276 444.04 82C444.04 94.1724 434.172 104.04 422 104.04C409.828 104.04 399.96 94.1724 399.96 82C399.96 81.6649 399.967 81.3315 399.982 81Z" fill="white"/>
<circle cx="505" cy="82" r="30.5" stroke="white" stroke-width="15"/>
<circle cx="674" cy="82" r="30.5" stroke="white" stroke-width="15"/>
<path d="M635.295 102.782C628.786 110.42 620.089 115.875 610.38 118.41C600.67 120.946 590.416 120.439 581.004 116.958C571.592 113.478 563.476 107.191 557.752 98.9485C552.029 90.706 548.974 80.9048 549 70.8699C549.027 60.8349 552.134 51.0501 557.901 42.8381C563.669 34.6261 571.818 28.3828 581.249 24.9522C590.679 21.5217 600.935 21.0692 610.631 23.656C620.327 26.2429 628.995 31.7442 635.463 39.4165L623.866 49.1931C619.4 43.8958 613.416 40.0974 606.721 38.3113C600.027 36.5252 592.945 36.8376 586.434 39.2063C579.923 41.5749 574.296 45.8856 570.314 51.5556C566.332 57.2256 564.186 63.9815 564.168 70.9101C564.15 77.8388 566.259 84.606 570.211 90.2971C574.163 95.9882 579.767 100.329 586.265 102.732C592.764 105.135 599.844 105.485 606.548 103.735C613.251 101.984 619.256 98.2175 623.75 92.9439L635.295 102.782Z" fill="white"/>
<path fill-rule="evenodd" clip-rule="evenodd" d="M723 79C723 69.7174 726.687 60.815 733.251 54.2513C739.815 47.6875 748.717 44 758 44H771V60H758V60.03C752.969 60.03 748.144 62.0286 744.586 65.5862C741.029 69.1437 739.03 73.9688 739.03 79H739V120H723V79Z" fill="white"/>
<path fill-rule="evenodd" clip-rule="evenodd" d="M815 119.947C807.725 119.564 800.697 117.096 794.766 112.816C788.293 108.146 783.455 101.556 780.938 93.9813C778.422 86.4066 778.354 78.2317 780.745 70.6164C783.136 63.001 787.865 56.332 794.26 51.5554C800.654 46.7788 808.391 44.1371 816.372 44.0052C824.353 43.8733 832.172 46.2578 838.722 50.8204C844.557 54.8859 849.12 60.4969 851.914 67H851.709L851.863 67.106L826.326 104H852V120H817H815V119.947ZM829.599 63.9158C830.74 64.7109 831.797 65.6078 832.759 66.5921L808.13 102.176C806.718 101.556 805.368 100.785 804.104 99.8735C800.35 97.1647 797.544 93.3425 796.084 88.9492C794.625 84.5558 794.585 79.8144 795.972 75.3975C797.359 70.9806 800.102 67.1126 803.811 64.3421C807.52 61.5717 812.007 60.0395 816.636 59.963C821.265 59.8865 825.8 61.2695 829.599 63.9158Z" fill="white"/>
</svg>
