<?xml version="1.0" standalone="no"?>
<!DOCTYPE svg PUBLIC "-//W3C//DTD SVG 20010904//EN"
 "http://www.w3.org/TR/2001/REC-SVG-20010904/DTD/svg10.dtd">
<svg version="1.0" xmlns="http://www.w3.org/2000/svg"
 width="724.000000pt" height="724.000000pt" viewBox="0 0 724.000000 724.000000"
 preserveAspectRatio="xMidYMid meet">
<metadata>
Created by potrace 1.14, written by Peter Selinger 2001-2017
</metadata>
<g transform="translate(0.000000,724.000000) scale(0.100000,-0.100000)"
fill="#000000" stroke="none">
<path d="M2687 6534 c-2 -2 -26 -6 -54 -9 -67 -5 -144 -15 -163 -20 -8 -2 -31
-7 -50 -10 -19 -3 -60 -10 -90 -16 -30 -7 -62 -13 -70 -14 -8 -2 -15 -4 -15
-5 0 -1 -9 -3 -20 -5 -158 -27 -514 -168 -743 -296 -72 -40 -232 -143 -256
-164 -6 -6 -24 -19 -41 -29 -16 -10 -37 -25 -45 -32 -8 -8 -47 -40 -87 -73
-96 -78 -238 -215 -318 -305 -46 -52 -112 -135 -163 -206 -34 -47 -66 -89 -70
-95 -66 -87 -192 -320 -270 -500 -58 -134 -149 -424 -168 -534 -3 -14 -7 -33
-9 -41 -3 -8 -7 -33 -10 -55 -4 -22 -10 -68 -16 -102 -31 -206 -34 -621 -4
-793 2 -14 7 -41 9 -60 52 -344 169 -680 344 -990 66 -117 193 -310 204 -310
4 0 8 -6 8 -12 0 -7 15 -29 33 -49 17 -20 43 -51 57 -68 24 -32 35 -44 131
-147 78 -83 213 -207 300 -275 24 -18 46 -36 49 -39 3 -3 12 -9 21 -15 9 -5
56 -37 105 -71 159 -108 303 -187 481 -264 95 -41 301 -115 346 -124 12 -3 38
-10 57 -16 40 -12 76 -20 218 -49 57 -11 107 -20 110 -19 4 1 23 -1 42 -5 160
-29 594 -30 760 -2 14 2 43 6 65 10 22 3 67 10 100 17 33 6 69 12 80 14 11 1
21 3 23 4 3 3 5 4 77 19 33 7 66 18 73 23 6 6 12 8 12 5 0 -6 192 57 279 92
115 46 293 133 361 176 22 14 43 25 46 25 4 0 22 11 40 25 18 14 35 25 39 25
6 0 162 107 181 124 7 6 25 20 40 31 93 66 350 310 431 410 73 91 163 209 163
215 0 3 8 15 18 26 10 11 32 41 48 68 16 26 37 60 46 74 49 79 137 251 187
367 55 127 141 385 157 470 2 11 6 31 9 45 3 14 7 36 10 50 3 14 9 48 14 75 6
28 13 66 15 85 3 19 9 49 12 65 14 67 7 210 -15 288 -95 348 -424 571 -776
525 -68 -9 -225 -56 -225 -68 0 -4 -10 -10 -23 -14 -28 -7 -140 -91 -183 -138
-74 -80 -143 -210 -170 -323 -11 -48 -13 -57 -19 -115 -4 -30 -10 -71 -15 -90
-5 -19 -11 -46 -14 -60 -23 -124 -142 -394 -219 -495 -4 -5 -21 -28 -37 -50
-70 -94 -156 -184 -245 -260 -55 -46 -195 -142 -223 -152 -9 -4 -19 -9 -22
-12 -10 -12 -167 -81 -242 -105 -161 -54 -290 -75 -458 -76 -105 0 -187 5
-240 15 -19 4 -46 8 -60 10 -98 12 -304 86 -432 155 -148 79 -340 236 -445
362 -32 40 -126 177 -155 228 -27 48 -116 252 -123 285 -2 6 -8 30 -15 55 -7
25 -14 54 -16 65 -2 11 -6 31 -9 45 -30 129 -35 389 -9 523 3 18 8 41 9 52 9
56 49 187 81 267 77 194 180 351 324 497 47 48 117 110 155 139 39 28 75 56
82 62 7 5 15 10 17 10 3 0 29 15 58 33 58 36 141 77 203 100 22 8 49 18 60 23
11 4 22 8 25 8 3 1 10 4 15 7 10 6 135 37 185 45 14 2 35 6 46 9 12 3 64 7
115 11 52 3 100 7 107 9 6 3 12 0 12 -6 0 -6 6 -6 19 0 10 6 20 8 22 6 3 -2
38 -7 79 -10 172 -14 351 -63 536 -149 183 -84 295 -104 459 -84 256 33 487
229 568 483 24 75 28 101 32 202 8 256 -126 497 -353 630 -153 90 -453 204
-677 258 -136 33 -157 37 -240 49 -22 3 -56 8 -75 11 -19 3 -51 8 -70 11 -45
6 -537 14 -543 8z"/>
<path d="M6059 6416 c-2 -2 -24 -6 -49 -9 -137 -16 -302 -81 -445 -175 -74
-49 -213 -183 -255 -246 -14 -20 -30 -43 -36 -49 -18 -20 -83 -147 -76 -147 4
0 2 -4 -3 -8 -22 -15 -78 -212 -90 -312 -10 -98 -15 -133 -20 -140 -2 -4 -7
-22 -10 -41 -16 -97 -88 -259 -165 -375 -56 -84 -203 -237 -257 -269 -18 -11
-33 -23 -33 -27 0 -4 -7 -8 -15 -8 -8 0 -15 -3 -15 -7 0 -5 -10 -13 -23 -19
-12 -6 -53 -27 -92 -46 -65 -33 -146 -65 -188 -73 -9 -2 -21 -6 -25 -9 -5 -3
-22 -7 -38 -10 -16 -3 -51 -10 -79 -15 -53 -10 -323 -8 -365 3 -14 4 -36 9
-48 12 -106 22 -173 47 -272 103 -67 38 -188 90 -227 97 -12 2 -35 9 -50 15
-16 6 -29 10 -30 10 -2 -1 -4 -1 -5 0 -100 22 -418 15 -468 -11 -8 -4 -18 -8
-22 -9 -5 -1 -9 -1 -10 -2 -2 0 -14 -3 -27 -5 -34 -6 -192 -74 -212 -90 -8 -8
-19 -14 -24 -14 -4 0 -37 -21 -72 -46 -116 -83 -244 -222 -303 -329 -12 -22
-26 -44 -30 -50 -17 -22 -79 -194 -93 -260 -13 -60 -31 -209 -29 -240 8 -114
14 -180 17 -185 2 -4 7 -22 10 -41 18 -102 82 -251 155 -363 46 -71 216 -256
235 -256 4 0 24 -13 44 -29 32 -26 171 -100 226 -121 86 -33 153 -50 260 -66
40 -5 224 -6 252 0 11 3 43 8 70 12 74 10 220 61 303 106 150 80 298 211 381
339 16 24 33 49 38 55 14 17 71 143 93 204 27 77 46 166 53 245 4 38 8 68 20
124 7 38 35 134 45 156 53 120 81 172 127 243 30 45 58 82 64 82 5 0 9 5 9 10
0 25 248 240 277 240 5 0 15 6 22 13 6 6 15 12 19 13 4 0 34 14 68 30 76 38
202 79 274 90 242 35 461 11 645 -71 269 -121 341 -145 480 -161 94 -11 245
-6 320 10 225 48 398 140 556 296 146 143 256 342 295 535 3 11 8 36 11 55 4
19 7 100 7 180 -1 241 -54 403 -205 626 -45 66 -149 169 -233 229 -16 11 -33
25 -40 30 -47 42 -272 134 -365 150 -19 3 -39 8 -44 12 -9 6 -282 14 -288 9z"/>
</g>
</svg>
